<svg xmlns="http://www.w3.org/2000/svg" width="24" height="24" viewBox="0 0 24 24"><path fill="#fff" d="M14 20a2 2 0 0 1-2 2h-1a2 2 0 0 1-2-2h1a1 1 0 0 0 1 1h1a1 1 0 0 0 1-1h1m1-3a2 2 0 0 1-2 2h-3a2 2 0 0 1-2-2v-2c-1.8-1.18-3-3.2-3-5.5A6.5 6.5 0 0 1 11.5 3A6.5 6.5 0 0 1 18 9.5c0 2.3-1.2 4.32-3 5.5v2m-6 0a1 1 0 0 0 1 1h3a1 1 0 0 0 1-1v-2.6c1.78-.9 3-2.76 3-4.9A5.5 5.5 0 0 0 11.5 4A5.5 5.5 0 0 0 6 9.5c0 2.14 1.22 4 3 4.9V17m-.87-6.88l2.37-2.37l2 2L14.25 8l.71.71l-2.46 2.45l-2-2l-1.66 1.67l-.71-.71Z"/></svg>